<?xml version="1.0" encoding="utf-8"?>
<!-- Generator: Adobe Illustrator 23.0.1, SVG Export Plug-In . SVG Version: 6.00 Build 0)  -->
<svg version="1.1" id="Layer_1" xmlns="http://www.w3.org/2000/svg" xmlns:xlink="http://www.w3.org/1999/xlink" x="0px" y="0px"
	 viewBox="0 0 1920 1080" style="enable-background:new 0 0 1920 1080;" xml:space="preserve">
<style type="text/css">
	.st0{fill:#3F3F3F;}
	.st1{fill:#D40054;}
</style>
<g>
	<g>
		<path class="st0" d="M1142.89,592.87h19.25v2.74h-16.24v9.09h14.53v2.74h-14.53v9.32h16.43v2.74h-19.44V592.87z"/>
		<path class="st0" d="M1177.5,592.87h9.24c8.37,0,14.15,5.74,14.15,13.24v0.08c0,7.49-5.78,13.31-14.15,13.31h-9.24V592.87z
			 M1186.75,616.72c6.73,0,11.03-4.56,11.03-10.46v-0.08c0-5.89-4.3-10.54-11.03-10.54h-6.24v21.07H1186.75z"/>
		<path class="st0" d="M1215.96,608.36v-15.48h3v15.29c0,5.74,3.04,8.98,8.14,8.98c4.91,0,8.03-2.97,8.03-8.79v-15.48h3.01v15.25
			c0,7.76-4.45,11.79-11.11,11.79C1220.45,619.92,1215.96,615.89,1215.96,608.36z"/>
		<path class="st0" d="M1253.2,606.26v-0.08c0-7.53,5.63-13.77,13.47-13.77c4.83,0,7.72,1.71,10.38,4.22l-2.05,2.21
			c-2.24-2.13-4.75-3.65-8.37-3.65c-5.89,0-10.31,4.79-10.31,10.92v0.08c0,6.16,4.45,10.99,10.31,10.99c3.65,0,6.05-1.41,8.6-3.84
			l1.98,1.94c-2.78,2.82-5.82,4.68-10.65,4.68C1258.86,619.96,1253.2,613.91,1253.2,606.26z"/>
		<path class="st0" d="M1301.43,592.68h2.81l12.13,26.82h-3.23l-3.12-7.04h-14.49l-3.16,7.04h-3.08L1301.43,592.68z M1308.85,609.76
			l-6.05-13.58l-6.09,13.58H1308.85z"/>
		<path class="st0" d="M1334.37,595.65h-8.94v-2.78h20.92v2.78h-8.94v23.85h-3.04V595.65z"/>
		<path class="st0" d="M1361.37,592.87h3v26.63h-3V592.87z"/>
		<path class="st0" d="M1380.12,606.26v-0.08c0-7.34,5.52-13.77,13.62-13.77c8.1,0,13.54,6.35,13.54,13.69v0.08
			c0,7.34-5.52,13.77-13.62,13.77C1385.56,619.96,1380.12,613.6,1380.12,606.26z M1404.16,606.26v-0.08
			c0-6.05-4.41-10.99-10.5-10.99s-10.42,4.87-10.42,10.92v0.08c0,6.05,4.41,10.99,10.5,10.99S1404.16,612.31,1404.16,606.26z"/>
		<path class="st0" d="M1422.76,592.87h2.82l16.78,21.34v-21.34h2.93v26.63h-2.4l-17.2-21.83v21.83h-2.93V592.87z"/>
		<path class="st1" d="M1149.93,641.29h-8.94v-2.78h20.92v2.78h-8.94v23.85h-3.04V641.29z"/>
		<path class="st1" d="M1176.67,638.52h19.25v2.74h-16.24v9.09h14.53v2.74h-14.53v9.32h16.43v2.74h-19.44V638.52z"/>
		<path class="st1" d="M1210.1,651.91v-0.08c0-7.53,5.63-13.77,13.47-13.77c4.83,0,7.72,1.71,10.38,4.22l-2.05,2.21
			c-2.24-2.13-4.75-3.65-8.37-3.65c-5.89,0-10.31,4.79-10.31,10.92v0.08c0,6.16,4.45,10.99,10.31,10.99c3.65,0,6.05-1.41,8.6-3.84
			l1.98,1.94c-2.78,2.82-5.82,4.68-10.65,4.68C1215.77,665.6,1210.1,659.55,1210.1,651.91z"/>
		<path class="st1" d="M1248.48,638.52h3.01v11.83h15.37v-11.83h3v26.63h-3v-11.98h-15.37v11.98h-3.01V638.52z"/>
		<path class="st1" d="M1286.52,638.52h2.82l16.78,21.34v-21.34h2.93v26.63h-2.4l-17.2-21.83v21.83h-2.93V638.52z"/>
		<path class="st1" d="M1324.52,651.91v-0.08c0-7.34,5.52-13.77,13.62-13.77c8.1,0,13.54,6.35,13.54,13.69v0.08
			c0,7.34-5.52,13.77-13.62,13.77C1329.96,665.6,1324.52,659.25,1324.52,651.91z M1348.56,651.91v-0.08
			c0-6.05-4.41-10.99-10.5-10.99c-6.09,0-10.42,4.87-10.42,10.92v0.08c0,6.05,4.41,10.99,10.5,10.99
			C1344.22,662.82,1348.56,657.96,1348.56,651.91z"/>
		<path class="st1" d="M1367.16,638.52h3.01v23.85h14.99v2.78h-17.99V638.52z"/>
		<path class="st1" d="M1397.13,651.91v-0.08c0-7.34,5.52-13.77,13.62-13.77c8.1,0,13.54,6.35,13.54,13.69v0.08
			c0,7.34-5.52,13.77-13.62,13.77C1402.57,665.6,1397.13,659.25,1397.13,651.91z M1421.17,651.91v-0.08
			c0-6.05-4.41-10.99-10.5-10.99s-10.42,4.87-10.42,10.92v0.08c0,6.05,4.41,10.99,10.5,10.99S1421.17,657.96,1421.17,651.91z"/>
		<path class="st1" d="M1438.59,651.91v-0.08c0-7.3,5.36-13.77,13.35-13.77c4.49,0,7.27,1.29,9.93,3.54l-1.94,2.28
			c-2.05-1.79-4.34-3.04-8.1-3.04c-5.89,0-10.12,4.98-10.12,10.92v0.08c0,6.35,4.07,11.07,10.54,11.07c3.04,0,5.86-1.18,7.68-2.66
			v-6.62h-8.1v-2.7h10.99v10.61c-2.47,2.21-6.2,4.07-10.69,4.07C1443.76,665.6,1438.59,659.52,1438.59,651.91z"/>
		<path class="st1" d="M1485.91,654.61l-11.07-16.09h3.65l8.98,13.31l9.05-13.31h3.5l-11.07,16.05v10.57h-3.04V654.61z"/>
		<path class="st0" d="M1142.89,684.16h3.01v11.83h15.37v-11.83h3v26.63h-3v-11.98h-15.37v11.98h-3.01V684.16z"/>
		<path class="st0" d="M1180.93,684.16h19.25v2.74h-16.24v9.09h14.53v2.74h-14.53v9.32h16.43v2.74h-19.44V684.16z"/>
		<path class="st0" d="M1225.39,683.97h2.81l12.13,26.82h-3.23l-3.12-7.04h-14.49l-3.16,7.04h-3.08L1225.39,683.97z M1232.81,701.05
			l-6.05-13.58l-6.09,13.58H1232.81z"/>
		<path class="st0" d="M1254.72,684.16h3.01v23.85h14.99v2.78h-17.99V684.16z"/>
		<path class="st0" d="M1290.63,686.94h-8.94v-2.78h20.92v2.78h-8.94v23.85h-3.04V686.94z"/>
		<path class="st0" d="M1317.36,684.16h3.01v11.83h15.37v-11.83h3.01v26.63h-3.01v-11.98h-15.37v11.98h-3.01V684.16z"/>
		<path class="st0" d="M1354.22,697.55v-0.08c0-7.53,5.63-13.77,13.47-13.77c4.83,0,7.72,1.71,10.38,4.22l-2.05,2.21
			c-2.24-2.13-4.75-3.65-8.37-3.65c-5.89,0-10.31,4.79-10.31,10.92v0.08c0,6.16,4.45,10.99,10.31,10.99c3.65,0,6.05-1.41,8.6-3.84
			l1.98,1.94c-2.78,2.81-5.82,4.68-10.65,4.68C1359.89,711.24,1354.22,705.2,1354.22,697.55z"/>
		<path class="st0" d="M1402.45,683.97h2.81l12.13,26.82h-3.23l-3.12-7.04h-14.49l-3.16,7.04h-3.08L1402.45,683.97z M1409.87,701.05
			l-6.05-13.58l-6.09,13.58H1409.87z"/>
		<path class="st0" d="M1431.78,684.16h11.45c3.27,0,5.9,0.99,7.57,2.66c1.29,1.29,2.05,3.16,2.05,5.25v0.08
			c0,4.41-3.04,7-7.23,7.76l8.18,10.88h-3.69l-7.72-10.35h-7.61v10.35h-3.01V684.16z M1442.96,697.74c3.99,0,6.85-2.05,6.85-5.48
			v-0.08c0-3.27-2.51-5.25-6.81-5.25h-8.22v10.8H1442.96z"/>
		<path class="st0" d="M1468.41,684.16h19.25v2.74h-16.24v9.09h14.53v2.74h-14.53v9.32h16.43v2.74h-19.44V684.16z"/>
	</g>
	<path class="st0" d="M998.12,533.12l-39.03-0.6l-63.64,90.69l-64.48-90.59l-64.53,0.11l-0.41-151.11v-0.5c0-12.68,10.32-23,23-23
		s23,10.32,23,23h25c0-26.47-21.53-48-48-48s-48,21.53-48,48l0.41,151.65l-57.41,0.1l12,24.75h45.48l0.52,189.25h25v-37.75h-0.1
		l-0.42-151.5h51.57l64.45,90.54v98.71h25v-97.34l64.43-91.81l25.88,0.4l0.19,0c32.26,0,58.5,26.24,58.5,58.5v130.25h25V616.62
		C1081.51,570.62,1044.11,533.18,998.12,533.12z"/>
	<circle class="st1" cx="994.01" cy="642.56" r="24"/>
	<g>
		<g>
			<polygon class="st1" points="737.73,746.56 594.3,437.64 451.12,746.56 419.98,746.56 594.3,378.99 768.37,746.56 			"/>
		</g>
	</g>
</g>
</svg>
